<svg width="890" height="1024" viewBox="0 0 890 1024" fill="none" xmlns="http://www.w3.org/2000/svg">
<path d="M497.6 1024L470.4 989.867C443.2 955.733 388.8 887.467 372.32 819.2C355.68 750.933 377.12 682.667 419.68 614.4C462.4 546.133 526.4 477.867 588.32 409.6C650.08 341.333 709.92 273.067 759.68 204.8C809.6 136.533 849.6 68.2667 869.6 34.1333L889.6 0H3.14649e-07V116.5C3.14649e-07 150.633 3.14649e-07 245.733 3.14649e-07 314C3.14649e-07 382.267 3.14649e-07 540.233 3.14649e-07 608.5C3.14649e-07 676.767 3.14649e-07 750.933 3.14649e-07 819.2C3.14649e-07 887.467 3.14649e-07 888.733 3.14649e-07 957C3.14649e-07 1025.27 -4.86224e-07 1003.5 4.6745e-07 1024H152H497.6Z" fill="#209AF7" fill-opacity="0.24"/>
</svg>
